<?xml version="1.0" encoding="UTF-8" standalone="no"?>
<svg
   width="1080pt"
   height="1080pt"
   viewBox="0 0 1080 1080"
   version="1.1"
   id="svg234"
   sodipodi:docname="cow logo transparent.svg"
   inkscape:version="1.2 (dc2aedaf03, 2022-05-15)"
   inkscape:export-filename="cow logo transparent.png"
   inkscape:export-xdpi="96"
   inkscape:export-ydpi="96"
   xmlns:inkscape="http://www.inkscape.org/namespaces/inkscape"
   xmlns:sodipodi="http://sodipodi.sourceforge.net/DTD/sodipodi-0.dtd"
   xmlns="http://www.w3.org/2000/svg"
   xmlns:svg="http://www.w3.org/2000/svg">
  <defs
     id="defs238" />
  <sodipodi:namedview
     id="namedview236"
     pagecolor="#ffffff"
     bordercolor="#000000"
     borderopacity="0.25"
     inkscape:showpageshadow="2"
     inkscape:pageopacity="0.0"
     inkscape:pagecheckerboard="0"
     inkscape:deskcolor="#d1d1d1"
     inkscape:document-units="pt"
     showgrid="false"
     inkscape:zoom="0.3140625"
     inkscape:cx="-294.52736"
     inkscape:cy="1109.6517"
     inkscape:window-width="1920"
     inkscape:window-height="991"
     inkscape:window-x="-9"
     inkscape:window-y="-9"
     inkscape:window-maximized="1"
     inkscape:current-layer="surface1" />
  <g
     id="surface1"
     transform="matrix(1.0318325,0,0,1.0126408,-9.9982669,-12.149465)">
    <path
       style="fill:#ffffff;fill-opacity:1;fill-rule:nonzero;stroke:none"
       d="m 1001.9431,472.28111 c -0.098,-0.85546 -2.58197,-21.2539 -14.64447,-41.95703 -16.6094,-28.48828 -42.99221,-44.19531 -76.30081,-45.41406 -6.2539,-0.22656 -12.61718,-0.34375 -18.91406,-0.34375 -7.41015,0 -14.49219,0.15625 -21.26562,0.42578 -7.70313,-18.75 -16.9375,-36.70703 -27.55469,-53.71484 4.79297,-6.8711 9.14453,-14.47656 12.83984,-22.92578 22.65235,-51.77344 24.39453,-93.80469 23.73438,-120.91407 -0.44922,-18.37109 -10.48828,-24.89062 -18.94922,-24.89062 -8.05859,0 -14.60938,5.26172 -19.46484,15.64062 -13.92188,29.76954 -36.08594,65.375 -56.11719,82.13282 -64.69922,-61.41407 -152.13672,-99.09375 -248.38281,-99.09375 -97.98438,0 -186.84375,39.05468 -251.86719,102.44531 -21.09766,-14.89063 -45.51563,-53.55078 -60.45703,-85.48828 -4.85157,-10.375 -11.39844,-15.63672 -19.46094,-15.63672 -8.46094,0 -18.5,6.51953 -18.94922,24.89062 -0.66016,27.10938 1.08203,69.14063 23.73438,120.91407 4.76953,10.90234 10.62109,20.41015 17.125,28.72656 -9.20704,15.38672 -17.30079,31.51172 -24.16797,48.26953 -9.04688,-0.47656 -18.67578,-0.78125 -28.9375,-0.78125 -6.29688,0 -12.66016,0.11719 -18.91407,0.34375 -33.30858,1.21875 -59.691393,16.92578 -76.300773,45.41406 -12.0625,20.70313 -14.54687,41.10157 -14.64453,41.95703 l -2.73828,23.52735 22.25781,-8.09375 c 13.1875,-4.79688 28.062503,-9.07422 31.808603,-9.15625 5.25,0 21.61718,3.32812 45.98046,15.92969 4.74609,2.45312 9.58203,5.82421 14.70312,9.39453 0.13672,0.0976 0.28125,0.19531 0.41797,0.29297 -0.28906,5.92968 -0.4375,11.89843 -0.4375,17.90234 0,157.85935 101.36719,292.03515 242.55859,341.00788 0.0781,0.3711 0.12891,0.5976 0.13672,0.6328 2.07813,9.0156 8.69922,15.0937 17.1875,16.0625 2.50781,4.2617 5.83203,7.4492 7.77344,9.3125 0.21875,0.207 0.41406,0.3945 0.57812,0.5547 8.4336,8.3789 17.65235,14.2382 23.85547,17.9179 17.99219,10.668 40.16016,21.5938 68.19141,21.7227 0,0 0.33984,0 0.34375,0 26.01953,0 51.76172,-12.4102 68.76953,-22.8203 5.85156,-3.5821 14.54297,-9.2617 22.42969,-17.2149 0.15625,-0.1562 0.34375,-0.3359 0.55078,-0.539 1.84766,-1.8008 4.98828,-4.875 7.40234,-8.9649 8.47266,-1.039 15.0586,-7.039 17.15625,-15.9023 142.33985,-48.33203 244.76563,-183.08993 244.76563,-341.76958 0,-7.74609 -0.2461,-15.4375 -0.72656,-23.0625 2.57421,-1.69141 5.08984,-3.23828 7.58593,-4.52734 24.36328,-12.60157 40.73047,-15.92969 45.95699,-15.92969 3.7579,0.082 18.6329,4.35937 31.8321,9.15625 l 22.25777,8.08594 z m 0,0"
       id="path133" />
    <path
       style="fill:#979797;fill-opacity:1;fill-rule:nonzero;stroke:none"
       d="m 349.88064,292.88658 c 50.97265,-41.64843 116.08593,-66.64062 187.04297,-66.64062 69.98828,0 134.28906,24.32031 184.9414,64.94922 14.22656,-4.36719 30.46875,-10.56641 45.8086,-19.19922 -60.65235,-55.99219 -141.69922,-90.21485 -230.75,-90.21485 -90.46485,0 -172.67579,35.31641 -233.62891,92.89454 15.96875,8.36718 32.5625,14.21875 46.58594,18.21093"
       id="path135" />
    <path
       style="fill:#979797;fill-opacity:1;fill-rule:nonzero;stroke:none"
       d="m 829.38454,348.04283 c -11.30859,11.58594 -23.82031,20.26563 -35.85156,26.74219 3,5.20703 5.82422,10.52734 8.50391,15.92969 4.82812,-0.42578 10.0664,-0.96875 15.63672,-1.54688 9.34765,-0.96484 19.78906,-2.03906 31.33203,-2.91015 -5.75,-13.19532 -12.3086,-25.95313 -19.6211,-38.21485"
       id="path137" />
    <path
       style="fill:#979797;fill-opacity:1;fill-rule:nonzero;stroke:none"
       d="m 241.61111,352.88268 c -6.29297,10.95312 -11.96875,22.30468 -17.03516,33.98047 8.58984,0.73828 16.51562,1.55468 23.78125,2.30468 8.60937,0.89063 16.42187,1.69922 23.16406,2.125 2.23828,-4.53125 4.58985,-8.99609 7.05078,-13.39453 -12.11328,-5.89453 -25.04297,-13.98047 -36.96093,-25.01562"
       id="path139" />
    <path
       style="fill:#979797;fill-opacity:1;fill-rule:nonzero;stroke:none"
       d="m 416.96657,792.55844 c -0.53125,-0.2383 -1.0664,-0.4609 -1.59765,-0.6992 h -0.004 v 0 C 314.82986,746.48424 244.20095,646.57014 241.19704,529.8319 c -18.91406,-1.66797 -33.02734,-6.8125 -44.5,-12.90625 -0.0273,1.71875 -0.0664,3.42968 -0.0664,5.15234 0,145.15625 90.89843,269.06645 218.87109,317.96485 -1.03906,-12.875 -1.29297,-29.7578 1.46484,-47.4844"
       id="path141" />
    <path
       style="fill:#979797;fill-opacity:1;fill-rule:nonzero;stroke:none"
       d="m 832.6697,528.91393 c -2.6875,118.47661 -75.03125,219.74221 -177.68359,264.47261 l -0.004,0.024 c 2.67578,17.7851 2.33594,34.664 1.26172,47.4336 129.08203,-48.3399 220.97656,-172.8164 220.97656,-318.76565 0,-3.21484 -0.0547,-6.41406 -0.14453,-9.60547 -11.32031,6.99609 -25.17578,13.58203 -44.40625,16.44141"
       id="path143" />
    <path
       style="fill:#ffffff;fill-opacity:1;fill-rule:nonzero;stroke:none"
       d="m 363.26736,264.7108 -8.3086,-6.44922 2.89453,10.10157 -1.86328,1.25781 -12.92187,-10.07031 2.58984,-1.7461 7.86719,6.17578 -2.71875,-9.64843 2.10547,-1.42188 7.91797,6.10938 -2.76954,-9.58594 2.54297,-1.71485 4.52735,15.73438 z m 0,0"
       id="path145" />
    <path
       style="fill:#ffffff;fill-opacity:1;fill-rule:nonzero;stroke:none"
       d="m 389.45095,241.34752 -6.26953,3.30469 3.25,6.17187 -2.75781,1.45703 -7.25782,-13.77734 2.75782,-1.45312 2.625,4.98046 6.26953,-3.30078 -2.625,-4.98437 2.73828,-1.44141 7.25781,13.77735 -2.73828,1.4414 z m 0,0"
       id="path147" />
    <path
       style="fill:#ffffff;fill-opacity:1;fill-rule:nonzero;stroke:none"
       d="m 406.53298,223.81627 11.60938,-4.71484 1.11718,2.74218 -8.74609,3.55469 1.07422,2.64453 5.28906,-2.14843 1.11719,2.74218 -5.29297,2.14844 1.44141,3.55469 9.28515,-3.76953 1.11719,2.74218 -12.15234,4.9375 z m 0,0"
       id="path149" />
    <path
       style="fill:#ffffff;fill-opacity:1;fill-rule:nonzero;stroke:none"
       d="m 441.41189,217.56236 2.67968,9.15625 -2.96875,0.8711 -4.37109,-14.94531 1.80078,-0.52735 10.64453,6.82813 -2.67968,-9.16016 2.96875,-0.86719 4.375,14.94532 -1.77735,0.51953 z m 0,0"
       id="path151" />
    <path
       style="fill:#ffffff;fill-opacity:1;fill-rule:nonzero;stroke:none"
       d="m 496.31032,207.66783 c -0.46875,-4.68359 2.58594,-8.4414 7.19141,-8.89843 2.83984,-0.28516 5.41797,0.78515 7.51563,3.44921 l -2.41797,2.10157 c -1.32032,-2.02344 -2.96094,-2.76172 -4.80469,-2.57813 -2.76172,0.27344 -4.65625,2.58985 -4.35547,5.61719 0.30078,3.02344 2.61719,4.89062 5.37891,4.61719 1.94531,-0.19532 3.40625,-1.29688 4.53906,-4.03907 l 2.65625,1.59375 c -1.36719,3.35157 -3.79297,5.10938 -6.90234,5.41797 -4.60157,0.45703 -8.33594,-2.59765 -8.80079,-7.28125"
       id="path153" />
    <path
       style="fill:#ffffff;fill-opacity:1;fill-rule:nonzero;stroke:none"
       d="m 531.24392,205.32408 c 0,3.03907 2.11328,5.12891 4.88672,5.13282 2.80468,0 4.89453,-2.11329 4.89843,-5.12891 0,-3.03906 -2.08593,-5.15625 -4.89062,-5.16016 -2.77344,0 -4.89453,2.11328 -4.89453,5.15625 m -3.14453,-0.004 c 0,-4.70703 3.41406,-8.14063 8.04297,-8.13672 4.625,0 8.05859,3.4414 8.05859,8.14844 -0.004,4.70703 -3.44531,8.11328 -8.07031,8.11328 -4.62891,-0.004 -8.03516,-3.41797 -8.03125,-8.125"
       id="path155" />
    <path
       style="fill:#ffffff;fill-opacity:1;fill-rule:nonzero;stroke:none"
       d="m 570.81032,214.99986 -2.25781,-10.27343 -4.23828,9.61718 -2.23437,-0.22656 -3.48438,-16.0039 3.10156,0.3125 2.09375,9.77734 4.08594,-9.15234 2.52734,0.25781 2.17579,9.75781 4.0039,-9.13281 3.05078,0.30859 -6.58984,14.98438 z m 0,0"
       id="path157" />
    <path
       style="fill:#ffffff;fill-opacity:1;fill-rule:nonzero;stroke:none"
       d="m 591.88064,215.2733 2.26172,-2.20703 c 2.07421,2.39453 3.96484,3.56641 5.85546,3.95313 2.53907,0.52343 3.94532,-0.40235 4.17188,-1.51954 0.16016,-0.77734 -0.30078,-1.8164 -2.28906,-2.38671 -1.83203,-0.53516 -4.22266,-1 -5.79297,-2.16016 -1.33203,-1.00391 -1.95703,-2.42578 -1.64453,-3.95313 0.54687,-2.66796 3.51562,-3.97656 6.98828,-3.26562 2.51172,0.51562 4.76953,1.87109 6.99609,4.32422 l -2.28515,2.17969 c -1.82032,-2.1836 -3.44922,-3.19532 -5.28516,-3.57032 -2.15234,-0.4414 -3.17188,0.32032 -3.28906,0.89063 -0.21094,1.03515 1.53125,1.60937 2.1914,1.82422 0.9375,0.30078 2.07032,0.5625 3.33985,0.95703 3.05859,1.00781 4.72265,3.29297 4.19531,5.85937 -0.59375,2.89844 -3.72266,4.57813 -7.86328,3.72657 -2.87891,-0.58985 -5.21875,-1.9336 -7.55078,-4.65235"
       id="path159" />
    <path
       style="fill:#ffffff;fill-opacity:1;fill-rule:nonzero;stroke:none"
       d="m 655.24001,226.10143 5.29688,2.14062 -1.10938,2.74219 -5.29687,-2.14063 -2.54688,6.30079 -2.86719,-1.16016 5.83985,-14.43359 11.61328,4.69531 -1.10938,2.74609 -8.75,-3.53906 z m 0,0"
       id="path161" />
    <path
       style="fill:#ffffff;fill-opacity:1;fill-rule:nonzero;stroke:none"
       d="m 682.70486,231.97643 2.74609,1.42578 -5.80859,11.19922 8.26171,4.28515 -1.36328,2.62891 -11.01172,-5.71094 z m 0,0"
       id="path163" />
    <path
       style="fill:#ffffff;fill-opacity:1;fill-rule:nonzero;stroke:none"
       d="m 704.98611,262.58971 -2.60938,-1.66016 4.04297,-6.35937 -1.80078,-10.66797 3.36719,2.14062 1.21093,7.06641 6.89063,-1.91406 3.38672,2.15625 -10.46094,2.90234 z m 0,0"
       id="path165" />
    <path
       style="fill:#000000;fill-opacity:1;fill-rule:nonzero;stroke:none"
       d="m 565.41189,852.31237 c -19.625,-2.83203 -39.38282,-2.83203 -59.00782,0 -25.54296,3.6875 -58.5039,9.5664 -59.13281,15.4453 -0.48437,4.5391 5.32031,9.5079 7.34766,11.5196 6.48437,6.4453 13.73828,11.4023 21.0039,15.7109 20.42188,12.1094 38.8125,19.5781 60.79688,19.6758 20.27344,0.086 42.80469,-9.2774 61.41797,-20.668 6.80859,-4.1679 13.60937,-8.914 19.68359,-15.039 1.96875,-1.9883 7.49219,-6.7891 7.02344,-11.1993 -0.63281,-5.8789 -33.59375,-11.7578 -59.13281,-15.4453"
       id="path219" />
    <path
       style="fill:#000000;fill-opacity:1;fill-rule:nonzero;stroke:none"
       d="m 373.05251,393.66783 c -14.22265,-28.4375 10.03516,-78.6289 10.03516,-78.6289 0,0 -60.09375,-7.40625 -105.85156,-38.98438 -26.51954,-18.30078 -52.65625,-63.40234 -65.87891,-91.67187 -6.14453,-13.12891 -10.31641,-6.09766 -10.54688,3.41015 -0.64453,26.3125 1.00391,65.53907 22.50782,114.69922 29.27734,66.91797 105.39843,76.1211 105.39843,76.1211 0,0 -13.38281,22.58203 -36.80468,26.76562 -23.42188,4.18359 -67.75391,-8.36328 -136.34766,-5.85547 -68.593743,2.51172 -76.957023,74.44922 -76.957023,74.44922 0,0 27.605473,-10.03906 36.804693,-10.03906 9.20312,0 28.4414,5.01953 52.69921,17.5664 24.25781,12.54688 41.82421,39.31641 102.88671,33.46094 61.06641,-5.85547 60.23047,-86.99609 60.23047,-86.99609 0,0 12.54688,15.89453 10.03516,28.4414 -2.50781,12.54688 -19.23828,44.33204 -17.56641,63.57422 0.58594,6.73438 5.17969,15.21485 11.25,23.92969 5.58203,-17.03906 21.07032,-29.30078 39.32422,-29.30078 22.95313,0 41.5625,19.375 41.5625,43.2773 0,0.6836 -0.0703,1.3516 -0.0976,2.0274 -4.00782,-4.10939 -8.58594,-7.69533 -13.60157,-10.66017 -2.19531,11.84377 -12.57812,20.81637 -25.0625,20.81637 -14.08203,0 -25.49609,-11.414 -25.49609,-25.49606 0,-0.8789 0.043,-1.74218 0.12891,-2.59765 -5.02344,1.25781 -9.8086,3.08203 -14.28907,5.38281 11.06641,15.0898 25.56641,30.2891 30.61719,37.8672 8.36328,12.5469 3.34375,43.4961 5.85547,69.4258 2.50781,25.9336 31.78516,65.2461 31.78516,65.2461 0,0 6.6914,-43.4961 25.92968,-79.4649 19.24219,-35.9687 38.48047,-46.8437 40.98828,-89.50389 2.51172,-42.66406 -85.32031,-128.82031 -99.53906,-157.26172"
       id="path221" />
    <path
       style="fill:#000000;fill-opacity:1;fill-rule:nonzero;stroke:none"
       d="m 910.46267,399.5233 c -68.59375,-2.50781 -112.92578,10.03906 -136.34766,5.85547 -23.42187,-4.17969 -36.80469,-26.76562 -36.80469,-26.76562 0,0 76.1211,-9.20313 105.39844,-76.1211 21.50781,-49.16015 23.15235,-88.38672 22.51172,-114.69922 -0.23437,-9.50781 -4.40625,-16.53906 -10.55078,-3.41015 -13.22266,28.26953 -39.35938,73.37109 -65.87891,91.67187 -45.75781,31.57813 -105.85156,38.98438 -105.85156,38.98438 0,0 24.25781,50.1875 10.03906,78.6289 -14.22265,28.44141 -102.05468,114.59766 -99.54297,157.25782 2.50782,42.66409 21.7461,53.53909 40.98438,89.50779 19.24219,35.9688 25.93359,79.4649 25.93359,79.4649 0,0 29.27735,-39.3125 31.78516,-65.2461 2.51172,-25.9297 -2.50781,-56.8789 5.85547,-69.4297 5.05078,-7.5742 19.54687,-22.7735 30.61719,-37.8633 -4.48438,-2.30078 -9.26563,-4.125 -14.28907,-5.38281 0.0859,0.85547 0.12891,1.72265 0.12891,2.59765 0,14.08206 -11.41406,25.49996 -25.49609,25.49996 -12.48438,0 -22.86719,-8.9765 -25.0625,-20.82027 -5.01563,2.96484 -9.59375,6.55078 -13.60157,10.66407 -0.0273,-0.6797 -0.0976,-1.3438 -0.0976,-2.0313 0,-23.89839 18.60937,-43.2773 41.5625,-43.2773 18.2539,0 33.74218,12.26172 39.32422,29.30078 6.07031,-8.71484 10.66406,-17.19531 11.25,-23.93359 1.67187,-19.23828 -15.0586,-51.02344 -17.56641,-63.57032 -2.51172,-12.54687 10.03906,-28.4414 10.03906,-28.4414 0,0 -0.83984,81.14062 60.22266,86.99609 61.0664,5.85547 78.63281,-20.91406 102.89062,-33.46094 24.25782,-12.54687 43.4961,-17.5664 52.69919,-17.5664 9.2032,0 36.8047,10.03906 36.8047,10.03906 0,0 -8.3633,-71.9375 -76.95701,-74.44922"
       id="path223" />
    <path
       style="fill:#000000;fill-opacity:1;fill-rule:nonzero;stroke:none"
       d="m 569.4822,777.02334 c -9.15234,0 -16.57422,-7.4219 -16.57422,-16.5743 0,-9.1562 7.42188,-16.5781 16.57422,-16.5781 9.15625,0 16.57812,7.4219 16.57812,16.5781 0,9.1524 -7.42187,16.5743 -16.57812,16.5743 m -71.27734,0 c -9.15625,0 -16.57813,-7.4219 -16.57813,-16.5743 0,-9.1562 7.42188,-16.5781 16.57813,-16.5781 9.15234,0 16.57421,7.4219 16.57421,16.5781 0,9.1524 -7.42187,16.5743 -16.57421,16.5743 m 37.70312,-68 c -131.32812,0 -105.39844,140.5312 -102.89062,151.40623 1.96093,8.4883 10.66015,4.0352 15.30468,0.6367 3.50782,-2.5664 6.30469,-5.4804 10.25782,-7.5156 4.46093,-2.2969 9.25781,-3.85553 14.05078,-5.29303 11.76172,-3.5195 23.71093,-6.414 35.78515,-8.6562 7.5625,-1.4063 15.20703,-2.5508 22.88282,-2.9063 v -31.9296 c 0,-0.9883 0.8125,-1.8008 1.80078,-1.8008 h 8.78125 c 0.99218,0 1.80078,0.8125 1.80078,1.8008 v 32.1171 c 8.46484,0.6368 16.85547,2.2032 25.17969,3.9102 11.33593,2.3203 22.64843,4.8789 33.64062,8.5039 3.97656,1.3086 7.92578,2.78913 11.625,4.77343 3.83984,2.0586 6.49609,5.0039 9.89063,7.5469 4.61328,3.4531 12.95703,6.6914 14.77734,-1.1875 2.50781,-10.87503 28.44141,-151.40623 -102.88672,-151.40623"
       id="path225" />
    <path
       style="fill:#000000;fill-opacity:1;fill-rule:nonzero;stroke:none"
       d="m 582.73611,257.09361 c 3.67968,-5.58593 6.26953,-11.88281 7.58984,-18.4414 0.35156,-1.75781 0.5625,-3.75391 -0.52344,-5.17969 -1.88281,-2.47656 -5.79687,-1.29297 -8.51953,0.21094 -9.05859,5.01562 -17.44141,11.24219 -24.85937,18.46484 2.66406,-4.33203 4.46093,-9.19531 5.24609,-14.21875 0.34766,-2.22656 0.28516,-4.95703 -1.61719,-6.16015 -1.72265,-1.08985 -3.97656,-0.30079 -5.8164,0.57421 -7.66016,3.64454 -14.75391,8.47657 -20.94922,14.27344 2.10547,-4.4375 3.28515,-9.3125 3.43359,-14.21875 0.0508,-1.59375 -0.0469,-3.30859 -1.02734,-4.55859 -2.0586,-2.63281 -6.23047,-1.52735 -9.22266,-0.0352 -8.78125,4.39063 -16.89062,10.11719 -23.96875,16.92188 -4.16797,4.00781 -8.07812,8.46484 -13.19141,11.17578 -3.92578,2.08203 -8.33984,3.00781 -12.64062,4.13281 -16.85156,4.41016 -31.19141,12.32422 -44.88672,22.00391 -0.15625,1.0625 -0.16797,2.13672 -0.0547,3.16797 12.09375,-4.11719 26.8711,-5.33204 37.57032,-5.92969 16.16796,-0.90625 39.08593,0.86719 52.60546,11.01562 7.35157,5.51953 10.90235,14.28516 12.75782,23.47657 1.09765,0.40234 2.22265,0.64843 3.34375,0.73437 2.98828,-9.76953 9.4375,-18.65625 17.76562,-24.69531 13.4961,-9.78906 31.05469,-12.78516 47.63672,-11.0586 13.77734,1.4336 27.02734,5.88282 39.79297,11.3711 0.10547,-1.07031 0.1875,-2.16406 0.21875,-3.25391 -17.48438,-14.54687 -38.47656,-24.875 -60.68359,-29.77344"
       id="path227" />
    <path
       style="fill:#003566;fill-opacity:1;fill-rule:nonzero;stroke:none"
       d="m 393.94704,728.63264 c -3.24609,-4.3593 -31.79297,-43.4257 -34.61328,-72.5703 -0.98047,-10.125 -0.90234,-20.4765 -0.82812,-30.4843 0.0859,-11.1329 0.21484,-27.961 -2.64063,-32.2422 -1.89844,-2.8477 -6.33203,-8.0586 -11.02734,-13.5782 -19.32422,-22.7109 -34.22266,-41.44137 -35.70703,-58.51168 -0.15235,-1.75781 -0.19922,-3.5625 -0.14844,-5.39844 -9.49609,7.08203 -20.625,11.54688 -33.20313,13.26563 4.48829,87.44139 52.69532,163.32419 123.17579,206.24609 z m 0,0"
       id="path229" />
    <path
       style="fill:#003566;fill-opacity:1;fill-rule:nonzero;stroke:none"
       d="m 757.0447,515.84752 c 0.0508,1.83594 0.004,3.64063 -0.14844,5.39844 -1.48437,17.07031 -16.38281,35.80078 -35.70703,58.51168 -4.69531,5.5157 -9.12891,10.7266 -11.02734,13.5782 -2.85157,4.2812 -2.72657,21.1054 -2.64063,32.2422 0.0742,10.0078 0.15235,20.3593 -0.82812,30.4843 -2.82032,29.1446 -31.36719,68.211 -34.61328,72.5703 l -3.9961,5.3672 c 69.33203,-43.1836 116.60547,-118.4531 120.9961,-205.05466 -12.09766,-1.83203 -22.83204,-6.23828 -32.03516,-13.09766"
       id="path231" />
  </g>
</svg>
